<?xml version="1.0" standalone="no"?>
<!DOCTYPE svg PUBLIC "-//W3C//DTD SVG 20010904//EN"
 "http://www.w3.org/TR/2001/REC-SVG-20010904/DTD/svg10.dtd">
<svg version="1.0" xmlns="http://www.w3.org/2000/svg"
 width="200.000000pt" height="290.000000pt" viewBox="0 0 200.000000 290.000000"
 preserveAspectRatio="xMidYMid meet">

<g transform="translate(0.000000,290.000000) scale(0.100000,-0.100000)"
fill="#000000" stroke="none">
<path d="M1570 2333 c11 -68 -6 -98 -29 -54 -25 45 -121 55 -271 29 -208 -38
-283 -69 -476 -196 -195 -130 -307 -271 -321 -405 -5 -49 -3 -57 11 -57 9 0
16 -8 16 -17 0 -31 38 -81 82 -109 67 -43 166 -64 373 -79 318 -25 355 -37
355 -122 0 -81 -23 -116 -108 -167 -42 -25 -135 -84 -207 -131 -71 -48 -143
-89 -158 -92 -15 -3 -33 -13 -40 -22 -16 -22 -102 -61 -133 -61 -14 0 -23 -4
-20 -9 3 -5 -15 -19 -42 -31 -143 -68 -173 -80 -182 -75 -6 3 -10 2 -10 -4 0
-20 -86 -24 -125 -6 -36 18 -36 18 -34 74 2 38 11 72 29 105 28 52 38 61 82
70 14 3 48 23 75 45 86 67 147 91 343 135 30 7 69 20 87 29 18 10 41 17 53 17
11 0 23 7 26 15 5 11 22 15 62 15 42 0 53 3 45 11 -27 27 -202 3 -343 -46 -36
-13 -82 -25 -103 -28 -21 -3 -60 -22 -86 -41 -27 -20 -53 -36 -57 -36 -18 0
-173 -96 -219 -135 -66 -56 -95 -109 -95 -174 0 -146 131 -211 334 -165 39 9
85 23 103 30 17 8 46 14 65 14 25 0 29 3 18 10 -12 8 -11 10 6 10 11 0 44 12
72 26 29 14 59 23 68 20 8 -3 12 -2 9 4 -3 6 3 10 14 10 12 0 21 4 21 8 0 5
24 19 53 32 130 59 263 145 347 223 33 31 65 57 70 57 15 0 114 91 129 119 8
14 24 35 35 46 12 11 30 46 40 77 17 56 17 59 -1 95 -40 83 -128 102 -496 107
-233 4 -281 7 -338 24 -87 26 -106 37 -129 75 -21 34 -28 117 -10 117 6 0 8
-11 4 -25 -11 -46 4 -73 62 -110 48 -31 68 -37 128 -41 77 -6 75 8 -4 20 -30
5 -62 20 -98 49 l-54 41 5 48 c9 72 51 153 95 180 20 12 63 48 94 80 32 32 65
58 75 58 9 0 24 7 33 15 28 26 110 65 135 65 14 0 30 9 37 19 9 15 19 18 40
14 16 -3 37 1 50 9 29 18 94 35 136 36 18 1 42 8 54 17 30 21 74 19 124 -5 70
-34 74 -43 58 -130 -9 -46 -12 -101 -8 -142 5 -61 8 -67 24 -58 10 5 21 25 24
44 4 23 17 43 36 56 24 17 29 29 32 68 2 37 6 46 20 44 12 -2 15 3 11 18 -3
11 -9 23 -14 26 -16 9 -10 25 8 22 13 -2 19 6 23 32 8 46 17 60 40 60 37 0 70
22 70 46 0 18 -11 29 -42 45 -55 28 -146 59 -173 59 -20 0 -21 -3 -15 -47z
m-213 -919 c-9 -9 -28 6 -21 18 4 6 10 6 17 -1 6 -6 8 -13 4 -17z m153 -79
c10 -12 10 -15 -4 -15 -9 0 -16 7 -16 15 0 8 2 15 4 15 2 0 9 -7 16 -15z m-33
-62 c-24 -32 -37 0 -15 40 l12 22 6 -25 c4 -14 2 -31 -3 -37z m8 -33 c-10 -11
-22 -17 -26 -14 -15 9 -10 22 9 27 33 9 35 7 17 -13z m-95 -125 c-15 -18 -40
-20 -40 -2 0 14 43 36 48 24 2 -4 -2 -14 -8 -22z"/>
<path d="M1505 1819 c-4 -6 -5 -12 -2 -15 2 -3 7 2 10 11 7 17 1 20 -8 4z"/>
<path d="M798 1093 c7 -3 16 -2 19 1 4 3 -2 6 -13 5 -11 0 -14 -3 -6 -6z"/>
<path d="M820 1026 c0 -2 11 -6 25 -8 13 -3 22 -1 19 3 -5 9 -44 13 -44 5z"/>
<path d="M870 980 c0 -5 5 -10 11 -10 5 0 7 5 4 10 -3 6 -8 10 -11 10 -2 0 -4
-4 -4 -10z"/>
<path d="M358 833 c7 -3 16 -2 19 1 4 3 -2 6 -13 5 -11 0 -14 -3 -6 -6z"/>
<path d="M745 680 c3 -5 11 -10 16 -10 6 0 7 5 4 10 -3 6 -11 10 -16 10 -6 0
-7 -4 -4 -10z"/>
<path d="M785 670 c3 -5 8 -10 11 -10 2 0 4 5 4 10 0 6 -5 10 -11 10 -5 0 -7
-4 -4 -10z"/>
<path d="M1009 650 c24 -11 46 -20 50 -20 12 1 -64 39 -79 39 -8 0 5 -8 29
-19z"/>
<path d="M686 651 c-3 -5 1 -12 10 -15 22 -8 25 -4 9 11 -8 7 -16 9 -19 4z"/>
<path d="M840 626 c0 -2 7 -6 15 -10 8 -3 15 -1 15 4 0 6 -7 10 -15 10 -8 0
-15 -2 -15 -4z"/>
<path d="M838 593 c7 -3 16 -2 19 1 4 3 -2 6 -13 5 -11 0 -14 -3 -6 -6z"/>
<path d="M874 589 c-3 -5 2 -6 10 -3 9 4 16 1 16 -6 0 -7 8 -10 20 -7 10 3 20
1 22 -4 2 -5 8 -1 15 10 11 18 9 19 -33 18 -25 0 -47 -4 -50 -8z"/>
<path d="M1250 550 c-12 -7 -10 -9 8 -7 12 0 22 5 22 9 0 11 -12 10 -30 -2z"/>
<path d="M730 510 c0 -5 7 -10 16 -10 8 0 12 5 9 10 -3 6 -10 10 -16 10 -5 0
-9 -4 -9 -10z"/>
<path d="M668 503 c7 -3 16 -2 19 1 4 3 -2 6 -13 5 -11 0 -14 -3 -6 -6z"/>
<path d="M938 503 c6 -2 18 -2 25 0 6 3 1 5 -13 5 -14 0 -19 -2 -12 -5z"/>
<path d="M1288 473 c6 -2 18 -2 25 0 6 3 1 5 -13 5 -14 0 -19 -2 -12 -5z"/>
<path d="M630 451 c-7 -13 -7 -22 0 -26 5 -3 10 3 10 14 0 10 6 22 13 24 9 4
9 6 0 6 -7 1 -17 -8 -23 -18z"/>
<path d="M760 466 c0 -2 7 -7 16 -10 8 -3 12 -2 9 4 -6 10 -25 14 -25 6z"/>
<path d="M1065 460 c3 -5 12 -7 20 -3 21 7 19 13 -6 13 -11 0 -18 -4 -14 -10z"/>
<path d="M1118 453 c6 -2 18 -2 25 0 6 3 1 5 -13 5 -14 0 -19 -2 -12 -5z"/>
<path d="M537 426 c-4 -10 1 -12 14 -9 23 6 24 9 5 16 -8 3 -17 0 -19 -7z"/>
<path d="M1010 430 c-9 -6 -10 -10 -3 -10 6 0 15 5 18 10 8 12 4 12 -15 0z"/>
<path d="M576 415 c-3 -8 -1 -15 4 -15 6 0 10 7 10 15 0 8 -2 15 -4 15 -2 0
-6 -7 -10 -15z"/>
<path d="M661 423 c-1 -7 -11 -13 -23 -14 -22 -1 -22 -1 2 -9 36 -12 70 -12
70 0 0 6 -9 10 -19 10 -11 0 -22 6 -24 13 -4 10 -6 10 -6 0z"/>
<path d="M1530 421 c0 -5 -6 -9 -12 -8 -59 2 -35 -8 32 -13 47 -3 87 -3 90 1
3 4 19 9 35 12 17 3 0 4 -37 2 -38 -1 -68 2 -68 6 0 5 -9 9 -20 9 -11 0 -20
-4 -20 -9z"/>
<path d="M1008 408 c-8 -5 -2 -8 17 -8 17 0 36 4 43 8 8 6 2 9 -17 9 -17 0
-36 -4 -43 -9z"/>
<path d="M1790 391 c-9 -18 -7 -19 27 -14 44 7 56 13 24 13 -12 0 -19 4 -16
10 3 6 -1 10 -9 10 -8 0 -20 -9 -26 -19z"/>
<path d="M477 393 c-4 -3 -7 -11 -7 -17 0 -6 5 -5 12 2 6 6 9 14 7 17 -3 3 -9
2 -12 -2z"/>
<path d="M1310 390 c20 -13 33 -13 25 0 -3 6 -14 10 -23 10 -15 0 -15 -2 -2
-10z"/>
<path d="M1430 390 c0 -5 10 -10 23 -10 18 0 19 2 7 10 -19 13 -30 13 -30 0z"/>
<path d="M738 383 c7 -3 16 -2 19 1 4 3 -2 6 -13 5 -11 0 -14 -3 -6 -6z"/>
<path d="M633 373 c9 -2 23 -2 30 0 6 3 -1 5 -18 5 -16 0 -22 -2 -12 -5z"/>
<path d="M1083 368 c-2 -5 3 -8 11 -8 9 0 16 -4 16 -9 0 -6 15 -9 34 -8 32 2
33 3 19 19 -15 17 -70 21 -80 6z m57 -8 c0 -5 -4 -10 -10 -10 -5 0 -10 5 -10
10 0 6 5 10 10 10 6 0 10 -4 10 -10z"/>
<path d="M1938 373 c6 -2 18 -2 25 0 6 3 1 5 -13 5 -14 0 -19 -2 -12 -5z"/>
<path d="M1038 363 c7 -3 16 -2 19 1 4 3 -2 6 -13 5 -11 0 -14 -3 -6 -6z"/>
<path d="M1375 355 l-40 -13 68 1 c60 1 65 3 45 14 -27 15 -23 15 -73 -2z"/>
<path d="M1058 343 c6 -2 18 -2 25 0 6 3 1 5 -13 5 -14 0 -19 -2 -12 -5z"/>
<path d="M1238 343 c7 -3 16 -2 19 1 4 3 -2 6 -13 5 -11 0 -14 -3 -6 -6z"/>
<path d="M720 320 c-17 -17 -21 -18 -35 -4 -15 16 -55 11 -55 -7 0 -5 -9 -9
-20 -9 -11 0 -20 5 -20 10 0 6 -7 10 -17 10 -15 0 -15 -1 0 -18 15 -17 15 -18
-6 -17 -12 0 -28 4 -34 8 -9 5 -13 3 -13 -7 0 -9 5 -16 11 -16 6 0 9 -7 5 -15
-3 -8 -1 -15 4 -15 6 0 10 -4 10 -8 0 -5 -7 -9 -15 -9 -8 0 -15 4 -15 9 0 4
-7 8 -16 8 -8 0 -12 -5 -9 -11 4 -6 -2 -13 -14 -16 -22 -6 -30 -25 -8 -20 6 1
11 -4 10 -10 -2 -7 3 -13 10 -13 8 0 7 -4 -3 -10 -8 -5 -10 -10 -5 -10 6 0 -1
-7 -14 -14 -15 -8 -20 -16 -12 -20 6 -4 11 -2 11 4 0 6 5 8 10 5 6 -4 8 -11 5
-16 -4 -5 6 -9 22 -9 21 0 24 3 14 9 -8 5 -16 17 -17 25 -2 16 12 21 55 17 16
-1 22 2 19 11 -4 9 6 14 29 16 29 2 34 -1 29 -14 -3 -8 -6 -20 -6 -25 0 -5 -5
-9 -11 -9 -6 0 -8 7 -4 18 5 14 4 15 -6 4 -7 -6 -28 -12 -45 -12 -18 0 -36 -5
-39 -10 -4 -6 -1 -9 7 -8 7 2 12 -3 10 -11 -2 -9 4 -12 18 -8 12 3 18 1 14 -5
-4 -7 -31 -8 -73 -4 -103 11 -109 9 -150 -34 -42 -45 -50 -49 -48 -20 1 11 7
20 14 20 17 0 17 22 1 39 -10 11 -10 14 0 18 6 3 12 9 12 15 0 6 -7 8 -15 4
-9 -3 -15 0 -15 9 0 8 13 15 33 18 31 4 31 4 -6 5 -25 1 -40 -3 -43 -13 -4 -8
-14 -15 -23 -16 -10 0 -11 -2 -3 -6 8 -3 5 -11 -10 -24 -13 -10 -18 -18 -11
-19 6 0 13 6 16 13 2 6 8 9 12 5 4 -4 2 -15 -5 -24 -12 -13 -11 -17 0 -24 8
-5 11 -13 6 -17 -5 -4 -11 -2 -13 5 -7 17 -30 15 -37 -4 -9 -24 3 -36 30 -31
14 2 27 0 30 -4 3 -5 21 -9 41 -9 28 0 33 3 24 13 -11 14 6 19 114 41 11 2 4
5 -15 6 -19 1 -29 4 -22 7 6 2 10 9 6 14 -3 5 0 9 5 9 6 0 11 -5 11 -11 0 -6
9 -9 19 -6 13 3 21 -1 24 -15 4 -13 13 -19 29 -18 44 4 51 1 36 -13 -7 -8 -20
-16 -28 -20 -9 -3 -4 -6 12 -6 15 -1 32 6 38 16 11 17 11 17 6 1 -4 -14 0 -18
19 -18 13 0 27 5 30 10 3 6 15 10 26 10 11 0 17 -4 14 -10 -4 -6 10 -10 36
-10 41 0 42 1 25 19 -20 22 -75 33 -93 19 -8 -6 -18 -6 -30 2 -15 9 -15 11 -1
6 9 -3 19 2 22 11 5 12 1 14 -14 10 -11 -3 -23 -1 -26 4 -3 5 2 9 10 9 9 0 16
4 16 9 0 16 126 34 149 21 12 -6 8 -12 -20 -29 -39 -24 -64 -28 -35 -6 17 13
18 15 3 15 -9 0 -17 -4 -17 -10 0 -5 -12 -10 -27 -10 -37 0 -23 -10 19 -14 19
-2 40 -6 46 -10 7 -4 22 0 34 8 15 11 18 16 8 17 -8 0 -4 5 10 10 20 8 22 12
10 19 -8 6 -10 10 -3 10 6 0 11 16 11 38 0 20 -3 31 -5 25 -3 -7 -14 -13 -24
-13 -11 0 -18 -4 -14 -9 3 -5 0 -13 -6 -17 -7 -4 -9 -3 -5 4 3 5 0 13 -6 15
-10 4 -10 6 0 6 6 1 12 6 12 12 0 6 -9 8 -20 4 -11 -4 -20 -2 -20 4 0 15 33
14 48 -1 9 -9 12 -9 12 1 0 9 7 11 23 7 12 -4 27 -8 34 -10 24 -5 26 -16 2
-17 l-24 -1 25 -7 c14 -5 32 -4 40 0 11 5 16 2 16 -11 0 -10 -6 -16 -13 -13
-7 3 -20 -1 -29 -8 -14 -12 -14 -14 3 -20 16 -7 16 -8 -4 -8 -27 -1 -40 -20
-22 -32 11 -6 11 -11 2 -20 -10 -10 -14 -9 -19 4 -5 13 -9 14 -25 4 -26 -16
-24 -37 4 -36 21 0 21 1 2 9 -19 8 -19 9 3 9 12 1 25 -6 28 -14 7 -16 74 -22
74 -6 0 5 3 17 7 26 5 14 2 16 -18 11 -21 -6 -20 -5 4 9 16 9 35 14 43 11 12
-5 12 -10 -5 -27 -11 -12 -18 -26 -14 -32 3 -5 9 -3 14 4 7 11 9 11 9 -1 0
-13 1 -13 10 0 9 13 10 13 10 0 0 -13 1 -13 10 0 6 9 13 11 18 5 4 -6 30 -11
59 -13 47 -3 52 -1 50 17 -1 13 -8 21 -20 21 -10 0 -16 -4 -13 -8 4 -6 -47 -8
-86 -3 -16 2 -7 20 10 21 31 2 86 1 119 -2 25 -2 31 -7 28 -19 -3 -9 0 -16 7
-16 7 -1 33 -4 58 -7 30 -3 38 -2 25 4 -18 7 -16 9 13 15 18 4 30 10 28 13 -3
3 2 11 12 18 20 16 149 19 172 4 12 -8 12 -10 -5 -11 -16 -1 -16 -2 5 -8 14
-5 33 -4 42 1 9 4 27 9 40 9 13 1 3 5 -22 9 -25 4 -71 13 -103 19 -32 7 -67
10 -77 7 -11 -3 -30 -9 -41 -12 -14 -4 -19 -2 -15 4 4 7 -10 12 -36 15 -33 3
-27 4 27 7 39 2 76 3 82 3 7 -1 11 3 8 7 -2 4 -28 6 -57 4 -39 -3 -49 -1 -38
6 11 8 7 10 -20 8 -19 -2 -38 -7 -42 -13 -5 -6 -8 -5 -8 3 0 6 -10 12 -22 12
-17 0 -19 -3 -9 -9 8 -5 9 -11 3 -15 -6 -3 -16 0 -24 7 -7 8 -19 12 -27 9 -10
-3 -11 0 -5 9 6 11 5 12 -7 3 -8 -5 -27 -16 -43 -23 -26 -11 -28 -10 -17 3 11
13 8 16 -20 24 l-33 8 21 21 c19 19 20 22 5 26 -9 3 16 5 56 6 40 0 72 5 72
11 0 6 6 10 14 10 8 0 18 5 22 11 4 8 -3 9 -24 4 -18 -4 -40 -1 -54 6 -13 6
-20 8 -16 4 14 -15 -42 -34 -115 -40 -40 -4 -78 -8 -85 -11 -7 -2 -10 0 -7 5
6 11 -31 25 -44 17 -12 -8 -41 21 -41 40 0 8 -4 14 -9 14 -6 0 -8 -9 -6 -21 3
-14 0 -19 -9 -16 -8 3 -17 3 -20 -1 -4 -3 -17 -7 -29 -8 l-22 -3 23 11 c12 6
22 16 22 21 0 6 -3 8 -6 4 -4 -3 -13 0 -20 8 -16 16 -43 10 -61 -13 -11 -13
-13 -13 -19 1 -8 21 4 40 22 33 8 -3 14 -1 14 3 0 5 -6 12 -12 14 -10 4 -10 6
0 6 8 1 29 -6 48 -15 35 -17 61 -11 34 7 -13 8 -13 10 0 19 8 5 21 8 28 5 7
-3 10 0 7 5 -9 15 -23 12 -45 -10z m-120 -70 c-6 -11 -13 -20 -16 -20 -3 0 -2
5 1 10 3 6 -2 10 -12 10 -15 0 -16 2 -3 10 27 17 42 12 30 -10z m85 0 c-3 -5
-13 -10 -21 -10 -8 0 -14 5 -14 10 0 6 9 10 21 10 11 0 17 -4 14 -10z m-75
-44 c0 -11 -19 -15 -25 -6 -3 5 1 10 9 10 9 0 16 -2 16 -4z m90 -6 c0 -5 -2
-10 -4 -10 -3 0 -8 5 -11 10 -3 6 -1 10 4 10 6 0 11 -4 11 -10z m150 6 c0 -3
-4 -8 -10 -11 -5 -3 -10 -1 -10 4 0 6 5 11 10 11 6 0 10 -2 10 -4z m-296 -21
c-23 -17 -34 -19 -34 -4 0 5 5 7 10 4 6 -3 10 -1 10 4 0 6 8 11 17 11 15 0 14
-2 -3 -15z m374 -2 c-10 -2 -26 -2 -35 0 -10 3 -2 5 17 5 19 0 27 -2 18 -5z
m27 -43 c3 -5 -1 -10 -10 -10 -9 0 -13 5 -10 10 3 6 8 10 10 10 2 0 7 -4 10
-10z m-18 -26 c-3 -3 -12 -4 -19 -1 -8 3 -5 6 6 6 11 1 17 -2 13 -5z m37 -16
c-5 -8 0 -9 14 -6 12 4 22 3 22 -2 0 -4 -13 -10 -30 -12 -40 -6 -42 21 -2 31
2 1 0 -4 -4 -11z m96 -8 c-8 -5 -18 -6 -24 -3 -5 4 -1 10 10 13 24 9 34 2 14
-10z m-765 0 c3 -5 2 -10 -4 -10 -5 0 -13 5 -16 10 -3 6 -2 10 4 10 5 0 13 -4
16 -10z m582 -5 c0 -8 -4 -12 -9 -9 -5 3 -6 10 -3 15 9 13 12 11 12 -6z m-7
-59 c0 -3 -4 -8 -10 -11 -5 -3 -10 -1 -10 4 0 6 5 11 10 11 6 0 10 -2 10 -4z"/>
<path d="M928 333 c12 -2 30 -2 40 0 9 3 -1 5 -23 4 -22 0 -30 -2 -17 -4z"/>
<path d="M605 320 c-3 -5 -1 -10 4 -10 6 0 11 5 11 10 0 6 -2 10 -4 10 -3 0
-8 -4 -11 -10z"/>
<path d="M420 305 c-7 -8 -8 -15 -2 -15 5 0 15 7 22 15 7 8 8 15 2 15 -5 0
-15 -7 -22 -15z"/>
<path d="M846 305 c-3 -8 -1 -15 4 -15 6 0 10 5 10 10 0 6 5 10 11 10 5 0 7
-4 4 -10 -3 -6 1 -7 9 -4 24 9 19 24 -8 24 -13 0 -26 -7 -30 -15z"/>
<path d="M1015 310 c-16 -7 -17 -9 -3 -9 9 -1 20 4 23 9 7 11 7 11 -20 0z"/>
<path d="M464 295 c4 -10 -1 -15 -14 -15 -14 0 -20 -7 -20 -21 0 -11 4 -18 9
-15 5 3 11 -1 15 -9 3 -8 11 -15 17 -15 8 0 9 4 0 13 -6 8 -8 17 -4 20 3 4 0
7 -8 7 -10 1 -9 4 4 11 9 6 14 15 11 21 -5 8 -1 9 10 5 10 -4 15 -3 11 3 -10
16 -38 12 -31 -5z"/>
<path d="M40 286 c0 -7 -7 -19 -15 -26 -22 -19 -19 -39 6 -33 12 4 18 11 15
20 -4 8 4 17 19 23 14 5 25 12 25 15 0 4 -4 4 -9 0 -5 -3 -12 -1 -16 5 -9 15
-25 12 -25 -4z"/>
<path d="M180 280 c-10 -18 -8 -20 25 -20 22 0 34 4 30 10 -3 6 -16 10 -28 10
-18 0 -19 2 -7 10 9 6 10 10 3 10 -7 0 -17 -9 -23 -20z"/>
<path d="M245 290 c-3 -5 -2 -10 4 -10 5 0 13 5 16 10 3 6 2 10 -4 10 -5 0
-13 -4 -16 -10z"/>
<path d="M1128 293 c7 -3 16 -2 19 1 4 3 -2 6 -13 5 -11 0 -14 -3 -6 -6z"/>
<path d="M1455 290 c3 -5 10 -10 16 -10 5 0 9 5 9 10 0 6 -7 10 -16 10 -8 0
-12 -4 -9 -10z"/>
<path d="M110 275 c-10 -12 -10 -15 3 -15 19 0 31 16 18 24 -5 3 -14 -1 -21
-9z"/>
<path d="M303 273 c-7 -2 -13 -9 -13 -14 0 -6 5 -7 10 -4 6 3 10 -1 10 -10 0
-23 27 -48 36 -34 3 6 9 7 13 2 3 -4 22 -6 41 -2 32 6 33 7 12 14 -17 6 -20
10 -11 16 14 9 21 39 9 39 -5 0 -11 -6 -13 -12 -4 -10 -8 -10 -15 1 -8 10 -14
11 -28 1 -18 -11 -18 -11 1 -6 19 6 19 5 3 -7 -10 -8 -15 -17 -11 -20 3 -4 1
-7 -5 -7 -14 0 -34 35 -25 44 7 7 4 7 -14 -1z"/>
<path d="M813 273 c-26 -5 -31 -23 -8 -23 23 0 29 4 31 18 1 6 2 11 1 11 -1
-1 -12 -4 -24 -6z"/>
<path d="M970 276 c0 -2 7 -7 16 -10 8 -3 12 -2 9 4 -6 10 -25 14 -25 6z"/>
<path d="M1765 270 c-3 -5 3 -10 14 -10 11 0 23 5 26 10 3 6 -3 10 -14 10 -11
0 -23 -4 -26 -10z"/>
<path d="M1911 269 c-24 -5 -47 -11 -50 -15 -3 -4 6 -4 22 -2 15 3 27 1 27 -4
0 -6 -22 -8 -50 -6 -42 2 -48 1 -33 -10 9 -6 24 -10 32 -7 9 2 42 6 74 7 55 2
81 17 35 19 -18 1 -19 2 -5 6 16 4 15 24 -1 22 -4 -1 -27 -5 -51 -10z"/>
<path d="M897 258 c-15 -11 -10 -13 30 -14 27 -1 38 1 25 3 -12 2 -20 9 -17
14 9 13 -18 11 -38 -3z"/>
<path d="M1828 263 c7 -3 16 -2 19 1 4 3 -2 6 -13 5 -11 0 -14 -3 -6 -6z"/>
<path d="M1030 250 c-9 -6 -10 -10 -3 -10 6 0 15 5 18 10 8 12 4 12 -15 0z"/>
<path d="M1728 253 c7 -3 16 -2 19 1 4 3 -2 6 -13 5 -11 0 -14 -3 -6 -6z"/>
<path d="M840 240 c0 -5 7 -10 16 -10 8 0 12 5 9 10 -3 6 -10 10 -16 10 -5 0
-9 -4 -9 -10z"/>
<path d="M1778 243 c7 -3 16 -2 19 1 4 3 -2 6 -13 5 -11 0 -14 -3 -6 -6z"/>
<path d="M928 223 c6 -2 18 -2 25 0 6 3 1 5 -13 5 -14 0 -19 -2 -12 -5z"/>
<path d="M1238 223 c7 -3 16 -2 19 1 4 3 -2 6 -13 5 -11 0 -14 -3 -6 -6z"/>
<path d="M1410 219 c0 -5 5 -7 10 -4 6 3 10 8 10 11 0 2 -4 4 -10 4 -5 0 -10
-5 -10 -11z"/>
<path d="M1955 220 c-3 -5 -1 -10 4 -10 6 0 11 5 11 10 0 6 -2 10 -4 10 -3 0
-8 -4 -11 -10z"/>
<path d="M165 210 c-3 -5 -2 -10 4 -10 5 0 13 5 16 10 3 6 2 10 -4 10 -5 0
-13 -4 -16 -10z"/>
<path d="M35 200 c4 -6 11 -8 16 -5 14 9 11 15 -7 15 -8 0 -12 -5 -9 -10z"/>
<path d="M91 194 c6 -7 17 -10 25 -7 20 7 18 10 -11 15 -20 4 -23 2 -14 -8z"/>
<path d="M265 196 c-23 -8 -31 -18 -32 -41 -1 -16 0 -24 3 -17 3 6 12 12 20
12 8 0 14 7 14 16 0 9 8 23 18 30 20 16 17 16 -23 0z m-5 -26 c0 -5 -5 -10
-11 -10 -5 0 -7 5 -4 10 3 6 8 10 11 10 2 0 4 -4 4 -10z"/>
<path d="M1203 203 c9 -2 25 -2 35 0 9 3 1 5 -18 5 -19 0 -27 -2 -17 -5z"/>
<path d="M1325 199 c6 -9 4 -11 -8 -6 -8 3 -28 2 -44 -3 -28 -9 -28 -9 7 -8
19 0 64 -3 99 -8 46 -5 62 -4 57 4 -4 6 -13 9 -21 5 -8 -3 -23 -2 -32 1 -15 6
-15 8 -3 16 12 8 10 10 -8 10 -14 0 -21 -4 -16 -11 4 -7 -1 -7 -16 1 -18 10
-21 9 -15 -1z"/>
<path d="M1653 203 c9 -2 25 -2 35 0 9 3 1 5 -18 5 -19 0 -27 -2 -17 -5z"/>
<path d="M1765 200 c-3 -5 1 -10 9 -10 9 0 16 5 16 10 0 6 -4 10 -9 10 -6 0
-13 -4 -16 -10z"/>
<path d="M1808 193 c6 -2 18 -2 25 0 6 3 1 5 -13 5 -14 0 -19 -2 -12 -5z"/>
<path d="M1917 193 c-20 -5 -18 -24 4 -31 8 -3 10 -1 6 4 -5 5 7 14 25 20 29
11 30 12 8 12 -14 0 -33 -2 -43 -5z"/>
<path d="M1048 183 c7 -3 16 -2 19 1 4 3 -2 6 -13 5 -11 0 -14 -3 -6 -6z"/>
<path d="M1614 176 c-10 -7 -30 -13 -44 -14 -14 0 -26 -6 -28 -12 -5 -14 -22
-13 -18 3 1 6 1 9 -1 6 -2 -4 -14 -4 -26 -1 -19 5 -20 3 -9 -10 8 -10 23 -14
40 -12 15 3 39 6 54 7 14 1 25 4 22 6 -2 2 4 10 14 17 13 9 19 9 24 1 6 -9 8
-9 8 0 0 19 -15 23 -36 9z"/>
<path d="M1668 183 c7 -3 16 -2 19 1 4 3 -2 6 -13 5 -11 0 -14 -3 -6 -6z"/>
<path d="M400 170 c0 -5 4 -10 9 -10 6 0 13 5 16 10 3 6 -1 10 -9 10 -9 0 -16
-4 -16 -10z"/>
<path d="M1836 172 c-2 -4 4 -8 14 -8 10 0 16 4 14 8 -3 4 -9 8 -14 8 -5 0
-11 -4 -14 -8z"/>
<path d="M78 163 c7 -3 16 -2 19 1 4 3 -2 6 -13 5 -11 0 -14 -3 -6 -6z"/>
<path d="M146 161 c-4 -7 -5 -15 -2 -18 9 -9 19 4 14 18 -4 11 -6 11 -12 0z"/>
<path d="M1009 161 c12 -8 51 -4 51 5 0 2 -15 4 -32 4 -23 0 -29 -3 -19 -9z"/>
<path d="M103 154 c-7 -3 -9 -12 -6 -21 4 -11 2 -14 -8 -11 -8 3 -13 11 -11
17 1 6 -5 11 -15 11 -14 0 -14 -3 3 -22 10 -13 20 -24 21 -26 3 -7 43 38 43
48 0 11 -7 12 -27 4z"/>
<path d="M1227 148 c6 -11 75 -9 93 2 10 6 -3 9 -42 7 -31 -1 -54 -5 -51 -9z"/>
<path d="M1418 153 c6 -2 18 -2 25 0 6 3 1 5 -13 5 -14 0 -19 -2 -12 -5z"/>
<path d="M1638 143 c6 -2 18 -2 25 0 6 3 1 5 -13 5 -14 0 -19 -2 -12 -5z"/>
<path d="M1753 135 c0 -9 4 -11 11 -6 6 4 18 11 26 14 9 3 5 6 -11 6 -16 1
-26 -4 -26 -14z"/>
<path d="M383 126 c-13 -6 -23 -14 -23 -18 0 -11 1 -11 46 12 24 12 32 19 19
18 -11 0 -30 -5 -42 -12z"/>
<path d="M820 130 c0 -5 5 -10 11 -10 5 0 7 5 4 10 -3 6 -8 10 -11 10 -2 0 -4
-4 -4 -10z"/>
<path d="M1445 130 c-16 -7 -17 -9 -3 -9 9 -1 20 4 23 9 7 11 7 11 -20 0z"/>
<path d="M1643 123 c15 -2 39 -2 55 0 15 2 2 4 -28 4 -30 0 -43 -2 -27 -4z"/>
<path d="M1715 110 c-18 -8 -17 -9 8 -9 16 -1 26 3 22 9 -3 6 -7 10 -8 9 -1 0
-11 -4 -22 -9z"/>
<path d="M1890 110 l-25 -8 27 -1 c15 -1 30 4 33 9 7 11 0 11 -35 0z"/>
<path d="M330 95 c7 -9 15 -13 17 -11 7 7 -7 26 -19 26 -6 0 -6 -6 2 -15z"/>
<path d="M1412 95 c9 -9 68 -13 73 -5 2 3 -15 7 -38 9 -23 1 -38 -1 -35 -4z"/>
<path d="M1818 93 c7 -3 16 -2 19 1 4 3 -2 6 -13 5 -11 0 -14 -3 -6 -6z"/>
<path d="M205 80 c-3 -5 -1 -10 4 -10 6 0 11 5 11 10 0 6 -2 10 -4 10 -3 0 -8
-4 -11 -10z"/>
<path d="M1508 83 c7 -3 16 -2 19 1 4 3 -2 6 -13 5 -11 0 -14 -3 -6 -6z"/>
<path d="M1603 83 c9 -2 23 -2 30 0 6 3 -1 5 -18 5 -16 0 -22 -2 -12 -5z"/>
<path d="M1690 79 c0 -5 5 -7 10 -4 6 3 10 8 10 11 0 2 -4 4 -10 4 -5 0 -10
-5 -10 -11z"/>
<path d="M1873 79 c1 -8 -18 -11 -63 -10 -35 2 -67 4 -70 6 -3 1 -11 -3 -18
-11 -10 -12 -10 -14 2 -14 8 0 18 -5 22 -12 4 -6 3 -8 -2 -5 -6 3 -16 2 -23
-2 -9 -6 -1 -10 23 -13 21 -2 39 0 42 4 3 4 15 8 27 8 18 0 20 2 7 11 -12 9
-10 10 8 6 15 -4 32 3 50 19 22 19 24 23 10 24 -10 0 -17 -5 -15 -11z m-88
-29 c3 -5 1 -10 -4 -10 -6 0 -11 5 -11 10 0 6 2 10 4 10 3 0 8 -4 11 -10z"/>
<path d="M1365 50 c-3 -6 1 -7 9 -4 18 7 21 14 7 14 -6 0 -13 -4 -16 -10z"/>
<path d="M437 26 c-16 -13 -16 -14 5 -20 35 -9 45 -7 51 7 4 10 -2 13 -20 9
-18 -3 -24 -1 -19 7 9 14 5 14 -17 -3z"/>
<path d="M1548 33 c6 -2 18 -2 25 0 6 3 1 5 -13 5 -14 0 -19 -2 -12 -5z"/>
<path d="M1332 18 c2 -6 10 -14 18 -16 8 -3 10 0 5 8 -6 10 -2 12 13 8 12 -4
20 -2 16 3 -8 14 -56 11 -52 -3z"/>
<path d="M1416 22 c-3 -5 4 -12 17 -16 35 -9 77 -7 77 4 0 6 -10 10 -22 10
-13 0 -33 3 -44 6 -12 3 -24 1 -28 -4z"/>
<path d="M1520 10 c0 -13 87 -13 95 0 4 6 -13 10 -44 10 -28 0 -51 -4 -51 -10z"/>
<path d="M1268 3 c6 -2 18 -2 25 0 6 3 1 5 -13 5 -14 0 -19 -2 -12 -5z"/>
</g>
</svg>
