<?xml version="1.0" standalone="no"?>
<!DOCTYPE svg PUBLIC "-//W3C//DTD SVG 20010904//EN"
 "http://www.w3.org/TR/2001/REC-SVG-20010904/DTD/svg10.dtd">
<svg version="1.0" xmlns="http://www.w3.org/2000/svg"
 width="200pt" height="220pt" viewBox="0 0 200 200"
 preserveAspectRatio="xMidYMid meet">

<g transform="translate(0.000000,250) scale(0.1,-0.1)"
fill="#D1B464" stroke="none">
<path d="M1570 2333 c11 -68 -6 -98 -29 -54 -25 45 -121 55 -271 29 -208 -38
-283 -69 -476 -196 -195 -130 -307 -271 -321 -405 -5 -49 -3 -57 11 -57 9 0
16 -8 16 -17 0 -31 38 -81 82 -109 67 -43 166 -64 373 -79 318 -25 355 -37
355 -122 0 -81 -23 -116 -108 -167 -42 -25 -135 -84 -207 -131 -71 -48 -143
-89 -158 -92 -15 -3 -33 -13 -40 -22 -16 -22 -102 -61 -133 -61 -14 0 -23 -4
-20 -9 3 -5 -15 -19 -42 -31 -143 -68 -173 -80 -182 -75 -6 3 -10 2 -10 -4 0
-20 -86 -24 -125 -6 -36 18 -36 18 -34 74 2 38 11 72 29 105 28 52 38 61 82
70 14 3 48 23 75 45 86 67 147 91 343 135 30 7 69 20 87 29 18 10 41 17 53 17
11 0 23 7 26 15 5 11 22 15 62 15 42 0 53 3 45 11 -27 27 -202 3 -343 -46 -36
-13 -82 -25 -103 -28 -21 -3 -60 -22 -86 -41 -27 -20 -53 -36 -57 -36 -18 0
-173 -96 -219 -135 -66 -56 -95 -109 -95 -174 0 -146 131 -211 334 -165 39 9
85 23 103 30 17 8 46 14 65 14 25 0 29 3 18 10 -12 8 -11 10 6 10 11 0 44 12
72 26 29 14 59 23 68 20 8 -3 12 -2 9 4 -3 6 3 10 14 10 12 0 21 4 21 8 0 5
24 19 53 32 130 59 263 145 347 223 33 31 65 57 70 57 15 0 114 91 129 119 8
14 24 35 35 46 12 11 30 46 40 77 17 56 17 59 -1 95 -40 83 -128 102 -496 107
-233 4 -281 7 -338 24 -87 26 -106 37 -129 75 -21 34 -28 117 -10 117 6 0 8
-11 4 -25 -11 -46 4 -73 62 -110 48 -31 68 -37 128 -41 77 -6 75 8 -4 20 -30
5 -62 20 -98 49 l-54 41 5 48 c9 72 51 153 95 180 20 12 63 48 94 80 32 32 65
58 75 58 9 0 24 7 33 15 28 26 110 65 135 65 14 0 30 9 37 19 9 15 19 18 40
14 16 -3 37 1 50 9 29 18 94 35 136 36 18 1 42 8 54 17 30 21 74 19 124 -5 70
-34 74 -43 58 -130 -9 -46 -12 -101 -8 -142 5 -61 8 -67 24 -58 10 5 21 25 24
44 4 23 17 43 36 56 24 17 29 29 32 68 2 37 6 46 20 44 12 -2 15 3 11 18 -3
11 -9 23 -14 26 -16 9 -10 25 8 22 13 -2 19 6 23 32 8 46 17 60 40 60 37 0 70
22 70 46 0 18 -11 29 -42 45 -55 28 -146 59 -173 59 -20 0 -21 -3 -15 -47z
m-213 -919 c-9 -9 -28 6 -21 18 4 6 10 6 17 -1 6 -6 8 -13 4 -17z m153 -79
c10 -12 10 -15 -4 -15 -9 0 -16 7 -16 15 0 8 2 15 4 15 2 0 9 -7 16 -15z m-33
-62 c-24 -32 -37 0 -15 40 l12 22 6 -25 c4 -14 2 -31 -3 -37z m8 -33 c-10 -11
-22 -17 -26 -14 -15 9 -10 22 9 27 33 9 35 7 17 -13z m-95 -125 c-15 -18 -40
-20 -40 -2 0 14 43 36 48 24 2 -4 -2 -14 -8 -22z"/>
<path d="M1505 1819 c-4 -6 -5 -12 -2 -15 2 -3 7 2 10 11 7 17 1 20 -8 4z"/>
<path d="M798 1093 c7 -3 16 -2 19 1 4 3 -2 6 -13 5 -11 0 -14 -3 -6 -6z"/>
<path d="M820 1026 c0 -2 11 -6 25 -8 13 -3 22 -1 19 3 -5 9 -44 13 -44 5z"/>
<path d="M870 980 c0 -5 5 -10 11 -10 5 0 7 5 4 10 -3 6 -8 10 -11 10 -2 0 -4
-4 -4 -10z"/>
<path d="M358 833 c7 -3 16 -2 19 1 4 3 -2 6 -13 5 -11 0 -14 -3 -6 -6z"/>
<path d="M745 680 c3 -5 11 -10 16 -10 6 0 7 5 4 10 -3 6 -11 10 -16 10 -6 0
-7 -4 -4 -10z"/>
<path d="M785 670 c3 -5 8 -10 11 -10 2 0 4 5 4 10 0 6 -5 10 -11 10 -5 0 -7
-4 -4 -10z"/>
</g>
</svg>